<?xml version="1.0" standalone="no"?>
<!DOCTYPE svg PUBLIC "-//W3C//DTD SVG 20010904//EN"
 "http://www.w3.org/TR/2001/REC-SVG-20010904/DTD/svg10.dtd">
<svg version="1.0" xmlns="http://www.w3.org/2000/svg"
 width="400.000000pt" height="400.000000pt" viewBox="0 0 400.000000 400.000000"
 preserveAspectRatio="xMidYMid meet">
<metadata>
Created by potrace 1.11, written by Peter Selinger 2001-2013
</metadata>
<g transform="translate(0.000000,400.000000) scale(0.100000,-0.100000)"
fill="#000000" stroke="none">
<path d="M1927 3835 c-59 -21 -123 -79 -154 -143 -25 -51 -28 -67 -27 -157 0
-83 5 -111 27 -167 14 -38 23 -68 19 -68 -4 0 -29 20 -57 45 -109 98 -214 124
-308 77 -44 -23 -57 -36 -82 -86 -25 -49 -29 -70 -29 -135 0 -98 9 -149 45
-241 67 -175 286 -490 340 -490 25 0 24 16 -5 70 -92 174 -81 355 23 352 45
-1 78 -28 138 -114 30 -43 58 -78 63 -78 16 0 17 26 3 75 -51 184 -59 294 -26
363 46 97 199 96 243 -2 26 -57 21 -179 -12 -298 -28 -99 -31 -138 -11 -138 5
0 28 30 53 66 65 96 102 126 152 122 58 -4 81 -38 80 -115 0 -71 -15 -128 -53
-210 -16 -34 -29 -69 -29 -78 0 -27 37 -16 64 19 14 19 32 40 39 48 91 93 231
333 271 463 77 252 -7 440 -191 430 -67 -4 -124 -32 -196 -96 -32 -28 -60 -49
-63 -46 -3 2 2 22 10 43 81 206 35 397 -115 475 -53 27 -155 34 -212 14z"/>
<path d="M684 3389 c-17 -5 -50 -29 -73 -54 -52 -57 -57 -107 -13 -147 22 -21
263 -186 586 -402 77 -51 91 -55 105 -27 15 27 22 17 -329 406 -80 88 -154
169 -165 180 -23 24 -67 55 -75 54 -3 0 -19 -5 -36 -10z"/>
<path d="M3295 3391 c-11 -5 -31 -22 -45 -39 -24 -28 -179 -198 -210 -231 -9
-9 -67 -74 -130 -146 -63 -71 -125 -141 -138 -155 -12 -14 -21 -34 -20 -45 7
-47 44 -29 295 141 448 302 432 290 433 337 0 36 -15 64 -53 96 -58 50 -88 59
-132 42z"/>
<path d="M3139 2716 c-2 -2 -24 -7 -49 -10 -131 -18 -364 -142 -543 -291 -73
-60 -86 -80 -69 -97 9 -9 26 -4 64 15 112 56 233 78 298 55 50 -17 68 -85 36
-133 -9 -13 -52 -50 -96 -80 -54 -39 -77 -61 -73 -71 3 -8 13 -13 22 -10 93
27 173 47 206 52 170 28 278 -26 277 -137 -2 -98 -82 -147 -224 -135 -72 6
-75 6 -186 37 -58 16 -86 19 -93 12 -11 -11 -3 -18 101 -96 60 -44 88 -87 82
-126 -11 -76 -110 -96 -251 -50 -36 11 -82 29 -102 40 -21 10 -45 19 -54 19
-27 0 -16 -37 19 -64 19 -14 40 -32 48 -39 24 -24 162 -123 225 -160 296 -179
568 -185 653 -17 23 47 20 131 -8 191 -12 26 -45 72 -73 103 -28 31 -50 59
-47 61 2 2 40 -7 83 -21 134 -43 256 -35 343 24 175 117 157 374 -33 467 -93
46 -231 43 -342 -5 -24 -10 -45 -16 -47 -12 -2 4 15 30 40 57 178 202 114 403
-134 420 -38 3 -71 3 -73 1z"/>
<path d="M712 2685 c-83 -39 -123 -104 -118 -191 4 -66 34 -127 96 -198 28
-32 49 -60 48 -62 -2 -2 -40 8 -83 23 -155 50 -295 29 -382 -58 -53 -52 -74
-98 -80 -170 -10 -113 46 -210 153 -264 53 -27 68 -30 154 -30 77 0 109 5 168
27 39 14 72 24 72 22 0 -3 -23 -32 -50 -65 -62 -74 -86 -120 -95 -181 -20
-132 79 -229 239 -233 42 -2 104 5 151 16 151 36 402 182 544 317 49 46 54 54
39 63 -13 7 -34 2 -80 -20 -202 -94 -363 -72 -337 47 8 38 42 73 128 131 52
36 60 45 50 57 -7 8 -19 12 -28 9 -68 -26 -226 -58 -286 -57 -122 1 -175 37
-183 123 -10 102 46 151 175 155 73 3 86 0 225 -37 42 -12 85 -18 95 -15 16 7
15 10 -13 34 -17 15 -56 45 -87 67 -131 93 -97 205 58 197 69 -4 115 -17 196
-56 171 -81 79 39 -148 193 -97 66 -243 136 -332 160 -108 29 -221 27 -289 -4z"/>
<path d="M1965 2260 c-54 -13 -79 -27 -117 -64 -52 -50 -70 -89 -76 -163 -14
-182 154 -312 327 -253 168 57 221 266 101 402 -58 67 -152 98 -235 78z"/>
<path d="M1659 1533 c-205 -228 -344 -509 -341 -692 3 -169 89 -261 233 -248
65 6 128 40 209 113 22 20 40 34 40 30 0 -3 -11 -39 -25 -80 -58 -172 -28
-324 82 -415 47 -39 101 -55 176 -53 104 3 181 55 235 157 21 41 27 66 29 136
2 84 -7 132 -40 212 -21 50 -7 47 60 -13 67 -59 112 -82 175 -88 68 -7 114 5
153 39 123 108 106 343 -44 604 -75 132 -234 335 -261 335 -22 0 -18 -25 13
-97 67 -152 75 -265 23 -310 -51 -43 -111 -21 -171 64 -65 91 -82 109 -94 98
-8 -8 -4 -36 13 -95 52 -182 53 -285 4 -356 -37 -55 -124 -68 -185 -28 -72 46
-79 202 -18 398 34 111 7 115 -65 10 -29 -42 -66 -84 -84 -95 -99 -60 -165 33
-130 183 8 35 29 93 46 130 44 97 27 128 -33 61z"/>
<path d="M1114 1193 c-76 -51 -217 -147 -313 -211 -194 -131 -231 -162 -231
-198 0 -50 43 -106 108 -138 48 -25 85 -8 157 73 54 59 97 108 270 301 204
228 207 232 187 252 -7 7 -18 13 -25 14 -7 1 -76 -41 -153 -93z"/>
<path d="M2757 1283 c-13 -12 -7 -38 16 -64 12 -14 50 -57 84 -95 34 -38 70
-79 80 -91 29 -33 162 -180 224 -247 31 -34 72 -79 92 -101 32 -35 42 -40 80
-40 33 0 51 7 78 29 75 63 90 123 42 167 -61 56 -649 449 -671 449 -10 0 -22
-3 -25 -7z"/>
</g>
</svg>
